<?xml version="1.0" encoding="utf-8"?>
<svg version="1.1" xmlns:xlink="http://www.w3.org/1999/xlink" width="689px" height="55px" viewBox="377 331  689 55" xmlns="http://www.w3.org/2000/svg">
  <defs>
    <filter x="377px" y="331px" width="689px" height="55px" filterUnits="userSpaceOnUse" id="filter65">
      <feOffset dx="10" dy="10" in="SourceAlpha" result="shadowOffsetInner" />
      <feGaussianBlur stdDeviation="2.5" in="shadowOffsetInner" result="shadowGaussian" />
      <feComposite in2="shadowGaussian" operator="atop" in="SourceAlpha" result="shadowComposite" />
      <feColorMatrix type="matrix" values="0 0 0 0 0  0 0 0 0 0  0 0 0 0 0  0 0 0 0.996078431372549 0  " in="shadowComposite" />
    </filter>
    <g id="widget66">
      <path d="M 377.5 351  A 19.5 19.5 0 0 1 397 331.5 L 1031 331.5  A 19.5 19.5 0 0 1 1050.5 351 A 19.5 19.5 0 0 1 1031 370.5 L 397 370.5  A 19.5 19.5 0 0 1 377.5 351 Z " fill-rule="nonzero" fill="#8400ff" stroke="none" fill-opacity="0.725490196078431" />
      <path d="M 377.5 351  A 19.5 19.5 0 0 1 397 331.5 L 1031 331.5  A 19.5 19.5 0 0 1 1050.5 351 A 19.5 19.5 0 0 1 1031 370.5 L 397 370.5  A 19.5 19.5 0 0 1 377.5 351 Z " stroke-width="1" stroke="#333333" fill="none" />
    </g>
  </defs>
  <use xlink:href="#widget66" filter="url(#filter65)" />
  <use xlink:href="#widget66" />
</svg>