<?xml version="1.0" encoding="utf-8"?>
<svg version="1.1" xmlns:xlink="http://www.w3.org/1999/xlink" width="324px" height="60px" viewBox="540 459  324 60" xmlns="http://www.w3.org/2000/svg">
  <defs>
    <filter x="540px" y="459px" width="324px" height="60px" filterUnits="userSpaceOnUse" id="filter13">
      <feOffset dx="10" dy="10" in="SourceAlpha" result="shadowOffsetInner" />
      <feGaussianBlur stdDeviation="2.5" in="shadowOffsetInner" result="shadowGaussian" />
      <feComposite in2="shadowGaussian" operator="atop" in="SourceAlpha" result="shadowComposite" />
      <feColorMatrix type="matrix" values="0 0 0 0 0  0 0 0 0 0  0 0 0 0 0  0 0 0 0.996078431372549 0  " in="shadowComposite" />
    </filter>
    <g id="widget14">
      <path d="M 540.5 479  A 19.5 19.5 0 0 1 560 459.5 L 829 459.5  A 19.5 19.5 0 0 1 848.5 479 L 848.5 484  A 19.5 19.5 0 0 1 829 503.5 L 560 503.5  A 19.5 19.5 0 0 1 540.5 484 L 540.5 479  Z " fill-rule="nonzero" fill="#f0f0f0" stroke="none" />
      <path d="M 540.5 479  A 19.5 19.5 0 0 1 560 459.5 L 829 459.5  A 19.5 19.5 0 0 1 848.5 479 L 848.5 484  A 19.5 19.5 0 0 1 829 503.5 L 560 503.5  A 19.5 19.5 0 0 1 540.5 484 L 540.5 479  Z " stroke-width="1" stroke="#797979" fill="none" />
    </g>
  </defs>
  <use xlink:href="#widget14" filter="url(#filter13)" />
  <use xlink:href="#widget14" />
</svg>