<?xml version="1.0" encoding="utf-8"?>
<svg version="1.1" xmlns:xlink="http://www.w3.org/1999/xlink" width="315px" height="55px" viewBox="224 187  315 55" xmlns="http://www.w3.org/2000/svg">
  <defs>
    <filter x="224px" y="187px" width="315px" height="55px" filterUnits="userSpaceOnUse" id="filter31">
      <feOffset dx="10" dy="10" in="SourceAlpha" result="shadowOffsetInner" />
      <feGaussianBlur stdDeviation="2.5" in="shadowOffsetInner" result="shadowGaussian" />
      <feComposite in2="shadowGaussian" operator="atop" in="SourceAlpha" result="shadowComposite" />
      <feColorMatrix type="matrix" values="0 0 0 0 0  0 0 0 0 0  0 0 0 0 0  0 0 0 0.996078431372549 0  " in="shadowComposite" />
    </filter>
    <g id="widget32">
      <path d="M 224.5 207  A 19.5 19.5 0 0 1 244 187.5 L 504 187.5  A 19.5 19.5 0 0 1 523.5 207 A 19.5 19.5 0 0 1 504 226.5 L 244 226.5  A 19.5 19.5 0 0 1 224.5 207 Z " fill-rule="nonzero" fill="#8400ff" stroke="none" fill-opacity="0.729411764705882" />
      <path d="M 224.5 207  A 19.5 19.5 0 0 1 244 187.5 L 504 187.5  A 19.5 19.5 0 0 1 523.5 207 A 19.5 19.5 0 0 1 504 226.5 L 244 226.5  A 19.5 19.5 0 0 1 224.5 207 Z " stroke-width="1" stroke="#333333" fill="none" />
    </g>
  </defs>
  <use xlink:href="#widget32" filter="url(#filter31)" />
  <use xlink:href="#widget32" />
</svg>