<?xml version="1.0" encoding="utf-8"?>
<svg version="1.1" xmlns:xlink="http://www.w3.org/1999/xlink" width="27px" height="27px" viewBox="231 241  27 27" xmlns="http://www.w3.org/2000/svg">
  <defs>
    <filter x="231px" y="241px" width="27px" height="27px" filterUnits="userSpaceOnUse" id="filter35">
      <feOffset dx="10" dy="10" in="SourceAlpha" result="shadowOffsetInner" />
      <feGaussianBlur stdDeviation="2.5" in="shadowOffsetInner" result="shadowGaussian" />
      <feComposite in2="shadowGaussian" operator="atop" in="SourceAlpha" result="shadowComposite" />
      <feColorMatrix type="matrix" values="0 0 0 0 0  0 0 0 0 0  0 0 0 0 0  0 0 0 0.996078431372549 0  " in="shadowComposite" />
    </filter>
    <g id="widget36">
      <path d="M 231.5 247  A 5.5 5.5 0 0 1 237 241.5 A 5.5 5.5 0 0 1 242.5 247 A 5.5 5.5 0 0 1 237 252.5 A 5.5 5.5 0 0 1 231.5 247 Z " fill-rule="nonzero" fill="#ffffff" stroke="none" />
      <path d="M 231.5 247  A 5.5 5.5 0 0 1 237 241.5 A 5.5 5.5 0 0 1 242.5 247 A 5.5 5.5 0 0 1 237 252.5 A 5.5 5.5 0 0 1 231.5 247 Z " stroke-width="1" stroke="#797979" fill="none" />
    </g>
  </defs>
  <use xlink:href="#widget36" filter="url(#filter35)" />
  <use xlink:href="#widget36" />
  <path d="M 233.571428571429 247  L 236.142857142857 249.571428571429  L 240.428571428571 243.571428571429  " stroke-width="2.57142857142857" stroke="#797979" fill="none" />
</svg>