<?xml version="1.0" encoding="utf-8"?>
<svg version="1.1" xmlns:xlink="http://www.w3.org/1999/xlink" width="315px" height="55px" viewBox="224 110  315 55" xmlns="http://www.w3.org/2000/svg">
  <defs>
    <filter x="224px" y="110px" width="315px" height="55px" filterUnits="userSpaceOnUse" id="filter25">
      <feOffset dx="10" dy="10" in="SourceAlpha" result="shadowOffsetInner" />
      <feGaussianBlur stdDeviation="2.5" in="shadowOffsetInner" result="shadowGaussian" />
      <feComposite in2="shadowGaussian" operator="atop" in="SourceAlpha" result="shadowComposite" />
      <feColorMatrix type="matrix" values="0 0 0 0 0  0 0 0 0 0  0 0 0 0 0  0 0 0 0.996078431372549 0  " in="shadowComposite" />
    </filter>
    <g id="widget26">
      <path d="M 224.5 130  A 19.5 19.5 0 0 1 244 110.5 L 504 110.5  A 19.5 19.5 0 0 1 523.5 130 A 19.5 19.5 0 0 1 504 149.5 L 244 149.5  A 19.5 19.5 0 0 1 224.5 130 Z " fill-rule="nonzero" fill="#f0f0f0" stroke="none" />
      <path d="M 224.5 130  A 19.5 19.5 0 0 1 244 110.5 L 504 110.5  A 19.5 19.5 0 0 1 523.5 130 A 19.5 19.5 0 0 1 504 149.5 L 244 149.5  A 19.5 19.5 0 0 1 224.5 130 Z " stroke-width="1" stroke="#8c8c8c" fill="none" />
    </g>
  </defs>
  <use xlink:href="#widget26" filter="url(#filter25)" />
  <use xlink:href="#widget26" />
</svg>