<?xml version="1.0" encoding="utf-8"?>
<svg version="1.1" xmlns:xlink="http://www.w3.org/1999/xlink" width="65px" height="50px" xmlns="http://www.w3.org/2000/svg">
  <g transform="matrix(1 0 0 1 -1362 -51 )">
    <path d="M 30.960693359375 21.337890625  C 28.580322265625 23.779296875  25.7080078125 25  22.34375 25  C 18.9794921875 25  16.107177734375 23.779296875  13.726806640625 21.337890625  C 11.346435546875 18.896484375  10.15625 15.9505208333333  10.15625 12.5  C 10.15625 9.04947916666667  11.346435546875 6.103515625  13.726806640625 3.662109375  C 16.107177734375 1.220703125  18.9794921875 0  22.34375 0  C 25.7080078125 0  28.580322265625 1.220703125  30.960693359375 3.662109375  C 33.341064453125 6.103515625  34.53125 9.04947916666667  34.53125 12.5  C 34.53125 15.9505208333333  33.341064453125 18.896484375  30.960693359375 21.337890625  Z M 52 17.7083333333333  L 52 29  L 63.984375 29  C 64.2594401041667 29.1666666666667  64.4974772135417 29.2697482638889  64.698486328125 29.4759114583333  C 64.8994954427083 29.6820746527778  65 29.9262152777778  65 30.2083333333333  L 65 36.4583333333333  C 65 36.7404513888889  64.8994954427083 36.9845920138889  64.698486328125 37.1907552083333  C 64.4974772135417 37.3969184027778  64.2594401041667 37.5  63.984375 37  L 52 37  L 52 48.9583333333333  C 52.8125 49.2404513888889  52.7119954427083 49.4845920138889  52.510986328125 49.6907552083333  C 52.3099772135417 49.8969184027778  52.0719401041667 50  51.796875 50  L 45.703125 50  C 45.4280598958333 50  45.1900227864583 49.8969184027778  44.989013671875 49.6907552083333  C 44.7880045572917 49.4845920138889  44.6875 49.2404513888889  44 48.9583333333333  L 44 37  L 33.515625 37  C 33.2405598958333 37.5  33.0025227864583 37.3969184027778  32.801513671875 37.1907552083333  C 32.6005045572917 36.9845920138889  32.5 36.7404513888889  32.5 36.4583333333333  L 32.5 30.2083333333333  C 32.5 29.9262152777778  32.6005045572917 29.6820746527778  32.801513671875 29.4759114583333  C 33.0025227864583 29.2697482638889  33.2405598958333 29.1666666666667  33.515625 29  L 44 29  L 44 17.7083333333333  C 44.6875 17.4262152777778  44.7880045572917 17.1820746527778  44.989013671875 16.9759114583333  C 45.1900227864583 16.7697482638889  45.4280598958333 16.6666666666667  45.703125 16.6666666666667  L 51.796875 16.6666666666667  C 52.0719401041667 16.6666666666667  52.3099772135417 16.7697482638889  52.510986328125 16.9759114583333  C 52.7119954427083 17.1820746527778  52.8125 17.4262152777778  52 17.7083333333333  Z M 29.453125 30.2083333333333  L 29.453125 36.4583333333333  C 29.453125 37.5868055555556  29.8551432291667 38.5633680555556  30.6591796875 39.3880208333333  C 31.4632161458333 40.2126736111111  32.4153645833333 40.625  33.515625 40.625  L 41.640625 40.625  L 41.640625 48.3723958333333  C 40.2018229166667 49.4574652777778  38.3927408854167 50  36.21337890625 50  L 8.47412109375 50  C 5.91389973958333 50  3.86149088541667 49.2513020833333  2.31689453125 47.75390625  C 0.772298177083333 46.2565104166667  0 44.1948784722222  0 41.5690104166667  C 0 40.4188368055556  0.0370279947916667 39.2957899305556  0.111083984375 38.1998697916667  C 0.185139973958333 37.1039496527778  0.333251953125 35.9212239583333  0.555419921875 34.6516927083333  C 0.777587890625 33.3821614583333  1.05794270833333 32.2048611111111  1.396484375 31.1197916666667  C 1.73502604166667 30.0347222222222  2.18994140625 28.9767795138889  2.76123046875 27.9459635416667  C 3.33251953125 26.9151475694444  3.98844401041667 26.0362413194444  4.72900390625 25.3092447916667  C 5.46956380208333 24.5822482638889  6.37410481770833 24.0017361111111  7.442626953125 23.5677083333333  C 8.51114908854167 23.1336805555556  9.69075520833333 22.9166666666667  10.9814453125 22.9166666666667  C 11.3834635416667 22.9166666666667  11.7960611979167 23.1011284722222  12.21923828125 23.4700520833333  C 13.8907877604167 24.7938368055556  15.5253092447917 25.7866753472222  17.122802734375 26.4485677083333  C 18.7202962239583 27.1104600694444  20.4606119791667 27.44140625  22.34375 27.44140625  C 24.2268880208333 27.44140625  25.9672037760417 27.1104600694444  27.564697265625 26.4485677083333  C 29.1621907552083 25.7866753472222  30.7967122395833 24.7938368055556  32.46826171875 23.4700520833333  C 32.8914388020833 23.1011284722222  33.3040364583333 22.9166666666667  33.7060546875 22.9166666666667  C 36.4990234375 22.9166666666667  38.7947591145833 23.9583333333333  40.59326171875 26.0416666666667  L 33.515625 26.0416666666667  C 32.4153645833333 26.0416666666667  31.4632161458333 26.4539930555556  30.6591796875 27.2786458333333  C 29.8551432291667 28.1032986111111  29.453125 29.0798611111111  29.453125 30.2083333333333  Z " fill-rule="nonzero" fill="#000000" stroke="none" transform="matrix(1 0 0 1 1362 51 )" />
  </g>
</svg>