<?xml version="1.0" encoding="utf-8"?>
<svg version="1.1" xmlns:xlink="http://www.w3.org/1999/xlink" width="41px" height="30px" xmlns="http://www.w3.org/2000/svg">
  <g transform="matrix(1 0 0 1 -1362 -200 )">
    <path d="M 3.15384615384615 23.0357142857143  L 3.15384615384615 27.8571428571429  L 10.25 27.8571428571429  L 10.25 23.0357142857143  L 3.15384615384615 23.0357142857143  Z M 11.8269230769231 23.0357142857143  L 11.8269230769231 27.8571428571429  L 19.7115384615385 27.8571428571429  L 19.7115384615385 23.0357142857143  L 11.8269230769231 23.0357142857143  Z M 3.15384615384615 16.6071428571429  L 3.15384615384615 21.9642857142857  L 10.25 21.9642857142857  L 10.25 16.6071428571429  L 3.15384615384615 16.6071428571429  Z M 11.8269230769231 16.6071428571429  L 11.8269230769231 21.9642857142857  L 19.7115384615385 21.9642857142857  L 19.7115384615385 16.6071428571429  L 11.8269230769231 16.6071428571429  Z M 3.15384615384615 10.7142857142857  L 3.15384615384615 15.5357142857143  L 10.25 15.5357142857143  L 10.25 10.7142857142857  L 3.15384615384615 10.7142857142857  Z M 21.2884615384615 23.0357142857143  L 21.2884615384615 27.8571428571429  L 29.1730769230769 27.8571428571429  L 29.1730769230769 23.0357142857143  L 21.2884615384615 23.0357142857143  Z M 11.8269230769231 10.7142857142857  L 11.8269230769231 15.5357142857143  L 19.7115384615385 15.5357142857143  L 19.7115384615385 10.7142857142857  L 11.8269230769231 10.7142857142857  Z M 30.75 23.0357142857143  L 30.75 27.8571428571429  L 37.8461538461538 27.8571428571429  L 37.8461538461538 23.0357142857143  L 30.75 23.0357142857143  Z M 21.2884615384615 16.6071428571429  L 21.2884615384615 21.9642857142857  L 29.1730769230769 21.9642857142857  L 29.1730769230769 16.6071428571429  L 21.2884615384615 16.6071428571429  Z M 12.3813100961538 7.87667410714286  C 12.537359775641 7.77064732142857  12.6153846153846 7.64508928571428  12.6153846153846 7.5  L 12.6153846153846 2.67857142857143  C 12.6153846153846 2.53348214285714  12.537359775641 2.40792410714286  12.3813100961538 2.30189732142857  C 12.2252604166667 2.19587053571428  12.0404647435897 2.14285714285714  11.8269230769231 2.14285714285714  L 10.25 2.14285714285714  C 10.0364583333333 2.14285714285714  9.85166266025641 2.19587053571428  9.69561298076923 2.30189732142857  C 9.53956330128205 2.40792410714286  9.46153846153846 2.53348214285714  9.46153846153846 2.67857142857143  L 9.46153846153846 7.5  C 9.46153846153846 7.64508928571428  9.53956330128205 7.77064732142857  9.69561298076923 7.87667410714286  C 9.85166266025641 7.98270089285714  10.0364583333333 8.03571428571429  10.25 8.03571428571429  L 11.8269230769231 8.03571428571429  C 12.0404647435897 8.03571428571429  12.2252604166667 7.98270089285714  12.3813100961538 7.87667410714286  Z M 30.75 16.6071428571429  L 30.75 21.9642857142857  L 37.8461538461538 21.9642857142857  L 37.8461538461538 16.6071428571429  L 30.75 16.6071428571429  Z M 21.2884615384615 10.7142857142857  L 21.2884615384615 15.5357142857143  L 29.1730769230769 15.5357142857143  L 29.1730769230769 10.7142857142857  L 21.2884615384615 10.7142857142857  Z M 30.75 10.7142857142857  L 30.75 15.5357142857143  L 37.8461538461538 15.5357142857143  L 37.8461538461538 10.7142857142857  L 30.75 10.7142857142857  Z M 31.3043870192308 7.87667410714286  C 31.460436698718 7.77064732142857  31.5384615384615 7.64508928571428  31.5384615384615 7.5  L 31.5384615384615 2.67857142857143  C 31.5384615384615 2.53348214285714  31.460436698718 2.40792410714286  31.3043870192308 2.30189732142857  C 31.1483373397436 2.19587053571428  30.9635416666667 2.14285714285714  30.75 2.14285714285714  L 29.1730769230769 2.14285714285714  C 28.9595352564103 2.14285714285714  28.7747395833333 2.19587053571428  28.6186899038462 2.30189732142857  C 28.462640224359 2.40792410714286  28.3846153846154 2.53348214285714  28.3846153846154 2.67857142857143  L 28.3846153846154 7.5  C 28.3846153846154 7.64508928571428  28.462640224359 7.77064732142857  28.6186899038462 7.87667410714286  C 28.7747395833333 7.98270089285714  28.9595352564103 8.03571428571429  29.1730769230769 8.03571428571429  L 30.75 8.03571428571429  C 30.9635416666667 8.03571428571429  31.1483373397436 7.98270089285714  31.3043870192308 7.87667410714286  Z M 40.0637019230769 4.921875  C 40.6879006410256 5.34598214285714  41 5.84821428571428  41 6.42857142857143  L 41 27.8571428571429  C 41 28.4375  40.6879006410256 28.9397321428571  40.0637019230769 29.3638392857143  C 39.4395032051282 29.7879464285714  38.7003205128205 30  37.8461538461538 30  L 3.15384615384615 30  C 2.29967948717949 30  1.56049679487179 29.7879464285714  0.936298076923077 29.3638392857143  C 0.312099358974359 28.9397321428571  0 28.4375  0 27.8571428571429  L 0 6.42857142857143  C 0 5.84821428571428  0.312099358974359 5.34598214285714  0.936298076923077 4.921875  C 1.56049679487179 4.49776785714285  2.29967948717949 4.28571428571429  3.15384615384615 4.28571428571429  L 6.30769230769231 4.28571428571429  L 6.30769230769231 2.67857142857143  C 6.30769230769231 1.94196428571429  6.69370993589744 1.31138392857143  7.46574519230769 0.786830357142858  C 8.23778044871795 0.262276785714286  9.16586538461539 0  10.25 0  L 11.8269230769231 0  C 12.9110576923077 0  13.8391426282051 0.262276785714286  14.6111778846154 0.786830357142858  C 15.3832131410256 1.31138392857143  15.7692307692308 1.94196428571429  15.7692307692308 2.67857142857143  L 15.7692307692308 4.28571428571429  L 25.2307692307692 4.28571428571429  L 25.2307692307692 2.67857142857143  C 25.2307692307692 1.94196428571429  25.6167868589744 1.31138392857143  26.3888221153846 0.786830357142858  C 27.1608573717949 0.262276785714286  28.0889423076923 0  29.1730769230769 0  L 30.75 0  C 31.8341346153846 0  32.7622195512821 0.262276785714286  33.5342548076923 0.786830357142858  C 34.3062900641026 1.31138392857143  34.6923076923077 1.94196428571429  34.6923076923077 2.67857142857143  L 34.6923076923077 4.28571428571429  L 37.8461538461538 4.28571428571429  C 38.7003205128205 4.28571428571429  39.4395032051282 4.49776785714285  40.0637019230769 4.921875  Z " fill-rule="nonzero" fill="#8c8c8c" stroke="none" transform="matrix(1 0 0 1 1362 200 )" />
  </g>
</svg>