<?xml version="1.0" encoding="utf-8"?>
<svg version="1.1" xmlns:xlink="http://www.w3.org/1999/xlink" width="47px" height="44px" xmlns="http://www.w3.org/2000/svg">
  <g transform="matrix(1 0 0 1 -537 -7 )">
    <path d="M 46.192439862543 20.9859719438878  C 46.7308132875143 21.2798931195725  47 21.6179024716099  47 22  C 47 22.3820975283901  46.7308132875143 22.7201068804275  46.192439862543 23.0140280561122  L 8.56013745704467 43.5591182364729  C 8.02176403207331 43.8530394121576  7.40263459335624 44  6.70274914089347 44  C 6.0028636884307 44  5.38373424971363 43.8530394121576  4.84536082474227 43.5591182364729  L 0.807560137457045 41.3547094188377  C 0.269186712485682 41.060788243153  0 40.7227788911156  0 40.3406813627254  C 0 39.9585838343353  0.269186712485682 39.6205744822979  0.807560137457045 39.3266533066132  L 32.5446735395189 22  L 0.807560137457045 4.67334669338677  C 0.269186712485682 4.37942551770207  0 4.04141616566466  0 3.65931863727455  C 0 3.27722110888443  0.269186712485682 2.93921175684702  0.807560137457045 2.64529058116232  L 4.84536082474227 0.440881763527055  C 5.38373424971363 0.14696058784235  6.0028636884307 0  6.70274914089347 0  C 7.40263459335624 0  8.02176403207331 0.14696058784235  8.56013745704467 0.440881763527055  L 46.192439862543 20.9859719438878  Z " fill-rule="nonzero" fill="#8400ff" stroke="none" transform="matrix(1 0 0 1 537 7 )" />
  </g>
</svg>