<?xml version="1.0" encoding="utf-8"?>
<svg version="1.1" xmlns:xlink="http://www.w3.org/1999/xlink" width="47px" height="44px" xmlns="http://www.w3.org/2000/svg">
  <g transform="matrix(1 0 0 1 -37 -7 )">
    <path d="M 46.192439862543 2.64529058116232  C 46.7308132875143 2.93921175684702  47 3.27722110888443  47 3.65931863727455  C 47 4.04141616566466  46.7308132875143 4.37942551770207  46.192439862543 4.67334669338677  L 14.4553264604811 22  L 46.192439862543 39.3266533066132  C 46.7308132875143 39.6205744822979  47 39.9585838343353  47 40.3406813627254  C 47 40.7227788911156  46.7308132875143 41.060788243153  46.192439862543 41.3547094188377  L 42.1546391752577 43.5591182364729  C 41.6162657502864 43.8530394121576  40.9971363115693 44  40.2972508591065 44  C 39.5973654066438 44  38.9782359679267 43.8530394121576  38.4398625429553 43.5591182364729  L 0.807560137457045 23.0140280561122  C 0.269186712485682 22.7201068804275  0 22.3820975283901  0 22  C 0 21.6179024716099  0.269186712485682 21.2798931195725  0.807560137457045 20.9859719438878  L 38.4398625429553 0.440881763527055  C 38.9782359679267 0.14696058784235  39.5973654066438 0  40.2972508591065 0  C 40.9971363115693 0  41.6162657502864 0.14696058784235  42.1546391752577 0.440881763527055  L 46.192439862543 2.64529058116232  Z " fill-rule="nonzero" fill="#8400ff" stroke="none" transform="matrix(1 0 0 1 37 7 )" />
  </g>
</svg>