<?xml version="1.0" encoding="utf-8"?>
<svg version="1.1" xmlns:xlink="http://www.w3.org/1999/xlink" width="13px" height="26px" xmlns="http://www.w3.org/2000/svg">
  <g transform="matrix(1 0 0 1 -171 -336 )">
    <path d="M 11.542600896861 19.8508522727273  C 11.9118086696562 20.0847537878788  12.0964125560538 20.3617424242424  12.0964125560538 20.6818181818182  L 12.0964125560538 24.8181818181818  C 12.0964125560538 25.1382575757576  11.9118086696562 25.4152462121212  11.542600896861 25.6491477272727  C 11.1733931240658 25.8830492424242  10.7361733931241 26  10.2309417040359 26  L 2.76905829596413 26  C 2.26382660687593 26  1.82660687593423 25.8830492424242  1.45739910313901 25.6491477272727  C 1.0881913303438 25.4152462121212  0.903587443946188 25.1382575757576  0.903587443946188 24.8181818181818  L 0.903587443946188 20.6818181818182  C 0.903587443946188 20.3617424242424  1.0881913303438 20.0847537878788  1.45739910313901 19.8508522727273  C 1.82660687593423 19.6169507575758  2.26382660687593 19.5  2.76905829596413 19.5  L 10.2309417040359 19.5  C 10.7361733931241 19.5  11.1733931240658 19.6169507575758  11.542600896861 19.8508522727273  Z M 12.4607623318386 0.350852272727274  C 12.8202541106129 0.584753787878784  12.9902840059791 0.861742424242423  12.9708520179372 1.18181818181818  L 12.1547085201794 15.3636363636364  C 12.1352765321375 15.6837121212121  11.9360986547085 15.9607007575758  11.5571748878924 16.1946022727273  C 11.1782511210762 16.4285037878788  10.7361733931241 16.5454545454545  10.2309417040359 16.5454545454545  L 2.76905829596413 16.5454545454545  C 2.26382660687593 16.5454545454545  1.82174887892377 16.4285037878788  1.44282511210762 16.1946022727273  C 1.06390134529148 15.9607007575758  0.864723467862482 15.6837121212121  0.845291479820628 15.3636363636364  L 0.0291479820627803 1.18181818181818  C 0.00971599402092703 0.861742424242423  0.179745889387145 0.584753787878784  0.539237668161435 0.350852272727274  C 0.898729446935725 0.116950757575755  1.33109118086697 0  1.83632286995516 0  L 11.1636771300448 0  C 11.668908819133 0  12.1012705530643 0.116950757575755  12.4607623318386 0.350852272727274  Z " fill-rule="nonzero" fill="#000000" stroke="none" transform="matrix(1 0 0 1 171 336 )" />
  </g>
</svg>